<mxfile host="app.diagrams.net" modified="2024-04-24T07:46:47.392Z" agent="Mozilla/5.0 (Windows NT 10.0; Win64; x64; rv:125.0) Gecko/20100101 Firefox/125.0" version="24.2.5" etag="5lO7I2TwQNxg0-pZbo9v" type="github">
  <diagram name="Page-1" id="lbiOTne6y06-Yurto5Mo">
    <mxGraphModel>
      <root>
        <mxCell id="0" />
        <mxCell id="1" parent="0" />
      </root>
    </mxGraphModel>
  </diagram>
</mxfile>
